<svg width="367" height="419" viewBox="0 0 367 419" xmlns="http://www.w3.org/2000/svg" xmlns:xlink="http://www.w3.org/1999/xlink"><defs><path id="a" d="M.992.647h209.23V210H.992z"/></defs><g fill="none" fill-rule="evenodd"><path d="M150 118c0 57.99 47.01 105 105 105s105-47.01 105-105S312.99 13 255 13 150 60.01 150 118" fill="#E2D3F5"/><path d="M146.011 252.067c.54 3.465 4.187 10.796 8.025 11.808 2.043.541 3.56-.787 5.15-1.867 2.886-1.962 5.734-3.968 8.588-5.972 1.037-.73 1.651-2.136.878-3.31q-3.787-5.751-7.573-11.507c-.674-1.022-2.23-1.652-3.35-.865-3.15 2.199-6.561 4.225-9.4 6.805-1.954 1.778.536 4.684 2.755 3.525 3.22-1.683 6.142-4.076 9.116-6.152l-3.35-.87q3.784 5.754 7.57 11.504l.879-3.308c-1.712 1.201-3.43 2.4-5.136 3.61-.968.685-4.205 3.679-5.28 3.559-.965-.107-2.986-3.495-3.579-4.193-1.212-1.42-2.348-2.764-3.912-3.816-.752-.509-1.492.329-1.38 1.05m168-156.002c.54 3.465 4.186 10.798 8.025 11.81 2.043.539 3.56-.79 5.148-1.87 2.884-1.958 5.735-3.968 8.589-5.972 1.037-.73 1.651-2.133.878-3.31l-7.573-11.503c-.674-1.025-2.23-1.653-3.35-.868-3.15 2.199-6.561 4.225-9.4 6.808-1.954 1.777.534 4.683 2.756 3.522 3.22-1.683 6.14-4.076 9.116-6.152-1.12-.292-2.235-.579-3.351-.87 2.522 3.836 5.048 7.67 7.57 11.506l.879-3.31c-1.712 1.204-3.43 2.4-5.136 3.61-.967.685-4.205 3.678-5.28 3.559-.965-.108-2.988-3.495-3.579-4.19-1.212-1.424-2.346-2.767-3.911-3.817-.755-.51-1.495.327-1.381 1.047" fill="#FBC580"/><path d="M328.888 157.117c-6.272 3.038-12.44 6.248-18.595 9.539-1.482.792-1.716 2.424-.567 3.662 4.51 4.863 8.96 9.74 13.807 14.24.934.868 2.44.37 2.927-.742 3.01-6.844 7.578-16.177 6.328-23.945-.318-1.974-3.212-2.873-3.987-.671-1.211 3.446-1.204 7.31-1.981 10.897-.898 4.138-2.066 8.286-3.835 12.117l3.277-.357c-4.419-5.212-9.2-10.012-13.976-14.864q-.04 1.696-.084 3.39c6.033-3.529 12.011-7.113 17.907-10.887 1.243-.795.119-3.028-1.22-2.38m-118.693 89.457c4.492-5.37 9.036-11.353 12.546-17.525 1.108-1.947-1.623-4.174-3.02-2.4-4.355 5.528-8.218 12.03-11.559 18.31-.707 1.333 1.056 2.78 2.033 1.615" fill="#FF7081"/><path d="m365.882 62.401-.343-.302c-1.508-1.33-3.98-1.594-5.447 0-1.482 1.611-1.43 3.824 0 5.435l.304.342c1.349 1.521 4.128 1.476 5.486 0 1.35-1.468 1.624-4.042 0-5.475" fill="#241352"/><path d="M259.294 263.057c1.346-6.816 2.436-14.152 2.704-21.132.083-2.176-3.05-2.72-3.41-.522-1.134 6.908-1.542 14.289-1.588 21.3-.009 1.464 2.001 1.833 2.294.354" fill="#FF957E"/><path d="m293.883 285.4-.343-.302c-1.508-1.33-3.983-1.592-5.447 0-1.484 1.612-1.43 3.824 0 5.436l.302.342c1.35 1.521 4.13 1.476 5.488 0 1.35-1.466 1.622-4.04 0-5.476" fill="#241352"/><g transform="translate(4 209)"><mask id="b" fill="#fff"><use xlink:href="#a"/></mask><g/><path d="M210.222 105.323c0 57.81-46.838 104.679-104.615 104.679-57.78 0-104.615-46.868-104.615-104.679S47.827.647 105.607.647c57.777 0 104.615 46.866 104.615 104.676" fill="#E2D3F5" mask="url(#b)"/></g></g></svg>